<?xml version="1.0" encoding="UTF-8"?>
<svg id="_レイヤー_1" data-name="レイヤー_1" xmlns="http://www.w3.org/2000/svg" version="1.1" viewBox="0 0 180 180">
  <!-- Generator: Adobe Illustrator 30.3.0, SVG Export Plug-In . SVG Version: 2.1.3 Build 182)  -->
  <defs>
    <style>
      .st0 {
        fill: #fff;
      }

      .st1 {
        fill: #acb1b7;
      }
    </style>
  </defs>
  <rect class="st0" width="180" height="180"/>
  <g id="blender_frame.2">
    <g id="blender_object.Plane.026.2.uuid_0x0">
      <g id="layer.Fills.uuid_0x2">
        <polygon class="st1" points="24.92 113.92 48.12 113.92 48.12 55.92 24.92 55.92 24.92 113.92"/>
        <polygon class="st1" points="142 91.06 142.44 90.63 142.91 90.25 143.43 89.91 143.97 89.63 144.54 89.41 145.14 89.26 145.74 89.16 146.96 89.1 155.08 89.1 155.08 65.9 146.34 65.9 143.3 66.06 140.29 66.54 137.35 67.32 134.51 68.42 131.8 69.8 129.25 71.46 126.88 73.37 124.73 75.52 122.81 77.89 121.16 80.44 119.77 83.15 118.68 86 117.9 88.94 117.42 91.94 117.26 94.98 117.42 98.02 117.9 101.03 118.68 103.97 119.77 106.81 121.16 109.52 122.81 112.08 124.73 114.44 126.88 116.59 129.25 118.51 131.8 120.17 134.51 121.55 137.35 122.64 140.29 123.43 143.3 123.9 146.34 124.06 155.08 124.06 155.08 100.87 146.96 100.87 145.74 100.81 145.14 100.71 144.54 100.55 143.97 100.33 143.43 100.05 142.91 99.72 142.44 99.33 142 98.9 141.62 98.42 141.28 97.91 141 97.36 140.79 96.79 140.63 96.2 140.53 95.6 140.5 94.98 140.53 94.37 140.63 93.76 140.79 93.17 141 92.6 141.28 92.05 141.62 91.54 142 91.06"/>
        <polygon class="st1" points="112.08 113.91 112.08 94.99 111.92 91.95 111.44 88.94 110.65 86 109.56 83.16 108.18 80.45 106.52 77.9 104.61 75.53 102.45 73.38 100.09 71.46 97.54 69.81 94.82 68.42 91.98 67.33 89.04 66.55 86.04 66.07 83 65.91 79.95 66.07 76.95 66.55 74.01 67.33 71.17 68.42 68.45 69.81 65.9 71.46 63.54 73.38 61.38 75.53 59.47 77.9 57.81 80.45 56.43 83.16 55.34 86 54.55 88.94 54.07 91.95 53.91 94.99 53.91 113.91 77.11 113.91 77.11 95.61 77.17 94.39 77.27 93.79 77.43 93.19 77.65 92.62 77.92 92.08 78.26 91.56 78.64 91.09 79.08 90.65 79.55 90.27 80.07 89.93 80.61 89.66 81.19 89.44 81.78 89.28 82.38 89.18 83 89.15 83.61 89.18 84.21 89.28 84.8 89.44 85.38 89.66 85.92 89.93 86.44 90.27 86.91 90.65 87.35 91.09 87.73 91.56 88.07 92.08 88.34 92.62 88.56 93.19 88.72 93.79 88.82 94.39 88.88 95.61 88.88 113.91 112.08 113.91"/>
      </g>
    </g>
  </g>
</svg>