<?xml version="1.0" encoding="UTF-8"?>
<svg id="_レイヤー_1" data-name="レイヤー_1" xmlns="http://www.w3.org/2000/svg" version="1.1" viewBox="0 0 123 38">
  <!-- Generator: Adobe Illustrator 30.3.0, SVG Export Plug-In . SVG Version: 2.1.3 Build 182)  -->
  <defs>
    <style>
      .st0 {
        fill: url(#logoGradient);
      }
    </style>
    <linearGradient id="logoGradient" x1="0" y1="19" x2="123" y2="19" gradientUnits="userSpaceOnUse">
      <stop offset="0" stop-color="#636a70"/>
      <stop offset="1" stop-color="#406ab4"/>
    </linearGradient>
  </defs>
  <g id="blender_frame.2">
    <g id="blender_object.Plane.026.2.uuid_0x0">
      <g id="layer.Fills.uuid_0x2">
        <polygon class="st0" points="34.36 28.98 44.03 28.98 44.03 4.78 34.36 4.78 34.36 28.98"/>
        <polygon class="st0" points="83.19 19.44 83.37 19.26 83.57 19.1 83.78 18.96 84.01 18.85 84.25 18.76 84.5 18.69 84.75 18.65 85.26 18.62 88.64 18.62 88.64 8.95 85 8.95 83.73 9.02 82.48 9.21 81.25 9.54 80.07 10 78.93 10.57 77.87 11.27 76.88 12.06 75.99 12.96 75.19 13.95 74.49 15.01 73.92 16.14 73.46 17.33 73.14 18.56 72.94 19.81 72.87 21.08 72.94 22.35 73.14 23.6 73.46 24.83 73.92 26.01 74.49 27.14 75.19 28.21 75.99 29.19 76.88 30.09 77.87 30.89 78.93 31.58 80.07 32.16 81.25 32.61 82.48 32.94 83.73 33.14 85 33.21 88.64 33.21 88.64 23.53 85.26 23.53 84.75 23.51 84.5 23.47 84.25 23.4 84.01 23.31 83.78 23.19 83.57 23.05 83.37 22.89 83.19 22.71 83.03 22.51 82.89 22.3 82.77 22.07 82.68 21.83 82.62 21.59 82.58 21.33 82.56 21.08 82.58 20.82 82.62 20.57 82.68 20.32 82.77 20.08 82.89 19.86 83.03 19.64 83.19 19.44"/>
        <polygon class="st0" points="63.51 10 64.64 10.58 65.71 11.27 66.69 12.07 67.59 12.97 68.39 13.95 69.08 15.02 69.66 16.15 70.11 17.33 70.44 18.56 70.64 19.81 70.71 21.08 70.71 28.97 61.03 28.97 61.03 21.34 61.01 20.83 60.97 20.58 60.9 20.33 60.81 20.09 60.69 19.87 60.55 19.65 60.39 19.45 60.21 19.27 60.01 19.11 59.8 18.97 59.57 18.86 59.33 18.76 59.09 18.7 58.83 18.66 58.58 18.65 58.32 18.66 58.07 18.7 57.82 18.76 57.58 18.86 57.36 18.97 57.14 19.11 56.94 19.27 56.76 19.45 56.6 19.65 56.46 19.87 56.35 20.09 56.26 20.33 56.19 20.58 56.15 20.83 56.12 21.34 56.12 28.97 46.45 28.97 46.45 21.08 46.52 19.81 46.71 18.56 47.04 17.33 47.5 16.15 48.07 15.02 48.77 13.95 49.56 12.97 50.46 12.07 51.45 11.27 52.51 10.58 53.64 10 54.83 9.55 56.06 9.22 57.31 9.02 58.58 8.95 59.85 9.02 61.1 9.22 62.33 9.55 63.51 10"/>
      </g>
    </g>
  </g>
</svg>